<svg id="Layer_1" data-name="Layer 1" xmlns="http://www.w3.org/2000/svg" viewBox="0 0 36.82 18.18"><defs><style>.cls-1{fill:#1cc5dc}</style></defs><path class="cls-1" d="M36.82 0l-.18 1.62-1.99.13-.11 1.05 1.98-.14-.18 1.63-1.98.12-.13 1.16 1.97-.13-.17 1.5-3.72.24.73-6.51-2.72 6.64-1.84.11L27.11.64l1.75-.11.78 4.57L31.46.36 36.82 0zM24.55 7.67l1.63-.1.75-6.91-1.64.11-.74 6.9z"/><path class="cls-1" d="M30.12 17.32l-.12 1.6 1.28-.08-.51 4.93-1.84-6.36-1.37.08-3.17 6.75.13-1.2-2.1.13.06-1.17 2.1-.13.15-1.61-2.09.13.09-1 2.1-.14.16-1.6-3.73.24-.15 1.53c-.22-1.15-1.29-1.43-2.45-1.36l-2.24.14-.16 1.8a2.78 2.78 0 00-2.94-1.66 4.19 4.19 0 00-3.89 3.76 3 3 0 003.25 3.35A4.29 4.29 0 0016 23.37L15.79 25h1.63l.2-2.15 1.12 2.07 7.26-.5.45-.93 2.27-.15.24.9 3.35-.24.55-5.29 1.4-.09.18-1.62zM16 22.54l-1.55.1a2.23 2.23 0 01-1.66 1.08 1.52 1.52 0 01-1.66-1.79 2.2 2.2 0 012-1.92 1.43 1.43 0 011.51.92l1.53-.1zm1.73-1.23l.15-1.64c1.06-.07 1.57 0 1.5.71s-.81.88-1.62.93zm2.87 3.15l-1.28-1.92A2.65 2.65 0 0021 21zM27.05 22l.95-2.3.45 2.17zm-10.69 3.84l2.27-.13a5.56 5.56 0 011.52.08 2.7 2.7 0 011.18.54 4.35 4.35 0 011.54 3.41 6.53 6.53 0 01-.05 1.42 3.9 3.9 0 01-.35 1.17 3.53 3.53 0 01-.67 1 2.89 2.89 0 01-.72.54 3.22 3.22 0 01-.87.31 6.21 6.21 0 01-1.05.14l-2.27.13a1.38 1.38 0 01-.72-.1.72.72 0 01-.34-.39 2.66 2.66 0 01-.11-.67L15.36 27a1.09 1.09 0 01.21-.82 1.07 1.07 0 01.79-.34zm.76 1.33l.33 5.83 1.32-.07.67-.06a2.65 2.65 0 00.51-.15 1.35 1.35 0 00.44-.29 3.18 3.18 0 00.72-2.59 3.79 3.79 0 00-.49-1.84 1.77 1.77 0 00-1-.75 4.84 4.84 0 00-1.37-.09zm12.76-.76l-3.88.22.12 2.11 3.6-.21a.86.86 0 01.61.14.62.62 0 01.22.46.64.64 0 01-.16.49.89.89 0 01-.59.22l-3.6.21.14 2.44 4-.24a.9.9 0 01.63.16.63.63 0 01.24.49.66.66 0 01-.18.51.88.88 0 01-.61.22l-4.72.28a1.12 1.12 0 01-.83-.21 1.14 1.14 0 01-.29-.8l-.37-6.44a1.45 1.45 0 01.07-.62.75.75 0 01.33-.37 1.43 1.43 0 01.6-.14l4.59-.26a.88.88 0 01.62.14.62.62 0 01.23.48.6.6 0 01-.17.5.92.92 0 01-.6.22zm8.75 5.4L37 26.75 35.84 32a7.4 7.4 0 01-.21.85 1.1 1.1 0 01-.31.48 1 1 0 01-.63.24 1.07 1.07 0 01-.53-.09 1 1 0 01-.36-.32 2.43 2.43 0 01-.24-.51c-.06-.2-.12-.38-.18-.55l-1.75-5.69a3.28 3.28 0 01-.18-.76.79.79 0 01.2-.58.8.8 0 01.57-.26.66.66 0 01.66.27 3.31 3.31 0 01.33.87l1.41 4.94 1-4.76a5.75 5.75 0 01.21-.83 1.18 1.18 0 01.33-.51 1 1 0 01.67-.24 1 1 0 01.7.17 1.09 1.09 0 01.36.45q.1.24.3.81l1.54 4.62.83-5.08a6.26 6.26 0 01.12-.62 1 1 0 01.23-.41.71.71 0 01.51-.21.82.82 0 01.59.19.75.75 0 01.27.56 3.43 3.43 0 01-.09.77l-1.09 5.86c-.08.39-.14.68-.2.87a1.06 1.06 0 01-.3.49.89.89 0 01-.64.24.92.92 0 01-.65-.16 1 1 0 01-.35-.43c-.09-.19-.19-.47-.33-.86z" transform="translate(-9.41 -16.24)"/></svg>